<svg width="23" height="30" viewBox="0 0 23 30" fill="none" xmlns="http://www.w3.org/2000/svg">
<path d="M20.16 0.869025L22.8619 23.1784C23.1321 25.2882 21.6268 27.2027 19.5425 27.4762L7.34542 29C5.26111 29.2735 3.36979 27.7497 3.09961 25.6399L0.359126 3.13513C0.320528 2.74442 0.590717 2.35371 1.0153 2.31464L2.98381 2.08022C3.36979 2.04115 3.75577 2.31464 3.79437 2.74442L6.34186 23.6473C6.45765 24.7022 7.42261 25.4445 8.46476 25.3273L17.6126 24.1943C18.6547 24.0771 19.3881 23.1003 19.2723 22.0454L16.7248 1.06438C16.6862 0.673671 16.9564 0.282964 17.381 0.243893L19.1565 0.00946827C19.6197 -0.0686732 20.1214 0.322035 20.16 0.869025Z" fill="#ACBAC9"/>
<path d="M16.146 22.1236L9.39125 22.9441C8.92807 23.0222 8.46489 22.6706 8.42629 22.1627L7.57713 15.2472L6.99816 10.4024C6.95956 10.207 7.15255 10.0898 7.30694 10.1289L8.3105 10.4415C10.3176 11.0275 12.4405 10.9885 14.409 10.2461L15.2196 9.93354C15.374 9.89447 15.5284 9.97261 15.5284 10.1289L16.8407 21.1078C16.9565 21.6157 16.6091 22.0845 16.146 22.1236Z" fill="#0B66EF"/>
</svg>
